<svg
   xmlns="http://www.w3.org/2000/svg"
   width="1000"
   height="189.655"
   viewBox="0 0 1000 189.655">
   <g
      fill="none"
      transform="scale(6.6225165)">
      <path
         fill="#ff0558"
         d="M 73.4242,14.6391 H 69.8018 V 6.13519 H 65.1013 V 27.7221 h 4.7005 v -8.5912 h 3.6224 v 8.5912 h 4.7006 V 6.13519 h -4.7006 z" />
      <path
         fill="#ff0558"
         d="m 37.8468,10.627 h 3.7949 v 17.0951 h 4.7005 V 10.627 h 3.5793 V 6.13519 H 37.8468 Z" />
      <path
         fill="#ff0558"
         d="m 28.4027,6.13519 -3.795,21.58691 h 4.5712 l 0.5132,-3.4888 h 4.3296 l 0.5046,3.4888 h 4.6142 L 35.3025,6.13519 Z m 1.8672,14.17321 1.3239,-8.9836 h 0.5606 l 1.3002,8.9836 z" />
      <path
         fill="#ff0558"
         fill-rule="evenodd"
         clip-rule="evenodd"
         d="M 20.309,0 18.9022,20.6502 18.5241,20.6701 15.1782,6.0605 H 11.0438 L 8.54076,21.1984 8.00429,21.2267 5.76326,6.0605 H 0 l 5.24331,22.5774 5.86119,-0.3906 1.9069,-14.014 0.5593,-0.0307 2.5535,13.7061 L 21.734,27.5323 26.1889,0 Z" />
      <path
         fill="#ff0558"
         d="m 57.1664,5.91712 c -4.2262,0 -6.253,2.31133 -6.253,5.88738 v 10.2483 c 0,3.576 2.0268,5.8873 6.253,5.8873 4.2262,0 6.253,-2.3113 6.253,-5.8873 V 18.346 h -4.7005 v 4.1429 c 0,1.1339 -0.4313,1.5263 -1.5525,1.5263 -1.1212,0 -1.5525,-0.3924 -1.5525,-1.5263 V 11.3684 c 0,-1.1339 0.4313,-1.52639 1.5525,-1.52639 1.1212,0 1.5525,0.39249 1.5525,1.52639 v 2.4421 h 4.7005 v -2.006 c 0,-3.57605 -2.0268,-5.88738 -6.253,-5.88738 z" />
      <path
         fill="#ff0558"
         d="M 83.0408,6.13519 79.2459,27.7221 h 4.5712 l 0.5131,-3.4888 h 4.3297 l 0.5046,3.4888 h 4.6142 L 89.9407,6.13519 Z m 1.8673,14.17321 1.3239,-8.9836 h 0.5606 l 1.3002,8.9836 z" />
      <path
         fill="#292a32"
         d="m 125.686,6.13525 h -4.743 V 27.7222 h 4.743 c 2.674,0 4.442,-1.0467 5.305,-2.9655 0.517,-1.1339 0.647,-2.1805 0.647,-7.8498 0,-5.6257 -0.13,-6.6723 -0.647,-7.80617 -0.863,-1.91884 -2.631,-2.96548 -5.305,-2.96548 z m 2.674,17.40035 c -0.431,1.0467 -1.337,1.6136 -2.932,1.6136 h -1.682 V 8.70824 h 1.682 c 1.595,0 2.501,0.56693 2.932,1.61356 0.345,0.7414 0.431,1.3955 0.431,6.6287 0,5.1896 -0.086,5.8437 -0.431,6.5851 z" />
      <path
         fill="#292a32"
         d="m 147.076,6.13525 h -4.269 l -3.968,21.58695 h 2.803 l 0.69,-4.361 h 5.175 l 0.733,4.361 H 151 Z M 142.764,20.919 144.877,8.40297 h 0.086 l 2.113,12.51603 z" />
      <path
         fill="#292a32"
         d="m 136.812,6.13525 h -2.803 V 27.7222 h 2.803 z" />
      <path
         fill="#292a32"
         d="M 103.952,6.13525 H 98.8633 V 27.7222 h 2.7597 V 17.6483 h 2.329 c 2.156,0 3.536,-0.6106 4.14,-1.9625 0.302,-0.785 0.388,-1.3955 0.388,-3.794 0,-2.39858 -0.086,-3.05273 -0.388,-3.75049 -0.604,-1.39552 -1.984,-2.00606 -4.14,-2.00606 z m 1.509,7.98065 c -0.302,0.7849 -1.035,0.9594 -2.199,0.9594 h -1.639 V 8.5338 h 1.639 c 1.164,0 1.897,0.21805 2.199,0.95942 0.173,0.39249 0.216,0.61058 0.216,2.31128 0,1.6572 -0.043,1.9625 -0.216,2.3114 z" />
      <path
         fill="#292a32"
         d="m 110.507,27.7222 h 7.848 v -2.573 h -5.045 v -7.5881 h 4.916 v -2.573 H 113.31 V 8.70824 h 5.045 V 6.13525 h -7.848 z" />
   </g>
</svg>